<?xml version="1.0" encoding="utf-8"?>
<!-- Generator: Adobe Illustrator 27.1.0, SVG Export Plug-In . SVG Version: 6.00 Build 0)  -->
<svg version="1.1" id="Layer_1" xmlns="http://www.w3.org/2000/svg" xmlns:xlink="http://www.w3.org/1999/xlink" x="0px" y="0px"
	 viewBox="0 0 595.3 841.9" style="enable-background:new 0 0 595.3 841.9;" xml:space="preserve">
<style type="text/css">
	.st0{stroke:#000000;stroke-miterlimit:10;}
	.st1{stroke:#010202;stroke-miterlimit:10;}
	.st2{fill:#FFFFFF;stroke:#000000;stroke-miterlimit:10;}
</style>
<rect x="9.2" y="19.8" class="st0" width="8.5" height="20.2"/>
<rect x="22.3" y="19.9" class="st1" width="8.5" height="20.2"/>
<rect x="9.2" y="43" class="st2" width="8.5" height="8.5"/>
<rect x="22.3" y="43.1" class="st2" width="8.5" height="8.5"/>
<rect x="44.8" y="20.1" class="st2" width="8.5" height="8.5"/>
<rect x="57.9" y="20.2" class="st2" width="8.5" height="8.5"/>
<rect x="44.8" y="31.7" class="st2" width="8.5" height="8.5"/>
<rect x="57.9" y="31.9" class="st2" width="8.5" height="8.5"/>
<rect x="44.8" y="31.7" class="st1" width="8.5" height="20"/>
<rect x="57.9" y="43.3" class="st2" width="8.5" height="8.5"/>
<rect x="79" y="20.2" class="st2" width="8.5" height="8.5"/>
<rect x="92.1" y="20.3" class="st2" width="8.5" height="8.5"/>
<rect x="79" y="31.9" class="st2" width="8.5" height="8.5"/>
<rect x="92.2" y="32" class="st2" width="8.5" height="8.5"/>
<rect x="79" y="43.4" class="st2" width="8.5" height="8.5"/>
<rect x="92.2" y="43.5" class="st2" width="8.5" height="8.5"/>
</svg>
